/* XPM */
static char *d14eed5473e14f8594c7e31211ada744ie1KtiIiPVOHvO2J[] = {
/* columns rows colors chars-per-pixel */
"64 64 66 1 ",
"  c None",
". c #130215",
"X c #130217",
"o c #140115",
"O c #170416",
"+ c #1E0417",
"@ c #3C061A",
"# c #3E081F",
"$ c #340922",
"% c #3F0B20",
"& c #5A172C",
"* c #52192F",
"= c #5F1A2D",
"- c #4F1932",
"; c #5B1932",
": c #5F1F34",
"> c #66142F",
", c #631D2A",
"< c #621D33",
"1 c #632034",
"2 c #6A2533",
"3 c #6D2538",
"4 c #7B2C37",
"5 c #433950",
"6 c #4B4152",
"7 c #4D4358",
"8 c #4C475B",
"9 c #5A4F5A",
"0 c #544F61",
"q c #574B64",
"w c #584F62",
"e c #5A5765",
"r c #555168",
"t c #892E31",
"y c #CC342E",
"u c #B34F2C",
"i c #B1542B",
"p c #B6552C",
"a c #B8542B",
"s c #B85733",
"d c #ED4C11",
"f c #EF4A17",
"g c #CD5827",
"h c #C05C2D",
"j c #C05539",
"k c #D17724",
"l c #FF8601",
"z c #DF9834",
"x c #F9A93A",
"c c #FAB831",
"v c #FFCE38",
"b c #F6B448",
"n c #F2B85D",
"m c #D09E6F",
"M c #C69475",
"N c #C1987A",
"B c #CB9D78",
"V c #D39D78",
"C c #EFD095",
"Z c #F0D49D",
"A c #ECE3AD",
"S c #F4E3A2",
"D c #F8F8DA",
"F c #FBFADD",
"G c #E4EBE9",
"H c #FEF9ED",
/* pixels */
"                                                                ",
"                                                                ",
"                                                                ",
"                                                                ",
"                                                                ",
"                                                                ",
"                                                                ",
"                                                                ",
"                                                                ",
"                     d                                          ",
"                       .                                        ",
"                       . d                                      ",
"                      .y                                        ",
"                      .y.                                       ",
"                      .y.   d   .l                              ",
"                      .yd.  .l   .d                             ",
"                      .yly.  ..                                 ",
"                      .ydly.....                                ",
"                      ..dlydyyyy..                              ",
"                       .yllvlvlyy..  l                          ",
"                       ..ylvvvvlyy. l.                          ",
"                      l ..dvvHvvly.                             ",
"                     . .ylylHHvvll..                            ",
"                     l .yllllHHvvlly.                           ",
"                     .  .ylvlvHHvvly.                           ",
"                        .yvvvHHHHvvd.                           ",
"                        .yvHHHHHHHvd.                           ",
"                       .yflHHHHvlHvd.                           ",
"                        .ydyvHvvlvd.                            ",
"                         ..yyvvvll.                             ",
"                          .........                             ",
"                        .NSDDDDDSSN.                            ",
"                        .77NSDNNS77.                            ",
"                         ...........                            ",
"                         .;+j22j>+;.                            ",
"                         .4gx+s+x4;.                            ",
"                         ...sx+sgX..                            ",
"                          .;O;nzO;.                             ",
"                           .......                              ",
"                           .Am9mqX                              ",
"                           .0mVw5.                              ",
"                            .....                               ",
"                            .11#.                               ",
"                            .cpt.                               ",
"                            .i<%.                               ",
"                            .kao.                               ",
"                            .bu=.                               ",
"                            .3$&.                               ",
"                            .,h@.                               ",
"                            .,h*.                               ",
"                           .GFCr8.                              ",
"                           .eZBM6.                              ",
"                           ..::-..                              ",
"                            ..:..                               ",
"                             ...                                ",
"                                                                ",
"                                                                ",
"                                                                ",
"                                                                ",
"                                                                ",
"                                                                ",
"                                                                ",
"                                                                ",
"                                                                "
};
